<svg width="40" height="40" viewBox="0 0 40 40" fill="none" xmlns="http://www.w3.org/2000/svg">
    <circle cx="20" cy="20" r="19" stroke="white" stroke-width="2"/>
    <path d="M18.6445 20.9453C18.6445 23.3047 18.1562 25.1094 17.1797 26.3594C16.2031 27.6094 14.7734 28.2344 12.8906 28.2344C11.0312 28.2344 9.60938 27.6211 8.625 26.3945C7.64062 25.168 7.13672 23.4102 7.11328 21.1211V17.9805C7.11328 15.5977 7.60547 13.7891 8.58984 12.5547C9.58203 11.3203 11.0078 10.7031 12.8672 10.7031C14.7266 10.7031 16.1484 11.3164 17.1328 12.543C18.1172 13.7617 18.6211 15.5156 18.6445 17.8047V20.9453ZM15.2578 17.5C15.2578 16.0859 15.0625 15.0586 14.6719 14.418C14.2891 13.7695 13.6875 13.4453 12.8672 13.4453C12.0703 13.4453 11.4805 13.7539 11.0977 14.3711C10.7227 14.9805 10.5234 15.9375 10.5 17.2422V21.3906C10.5 22.7812 10.6875 23.8164 11.0625 24.4961C11.4453 25.168 12.0547 25.5039 12.8906 25.5039C13.7188 25.5039 14.3164 25.1797 14.6836 24.5312C15.0508 23.8828 15.2422 22.8906 15.2578 21.5547V17.5ZM27.9141 18.4492H32.1445V21.5078H27.9141V26.2891H24.6914V21.5078H20.4492V18.4492H24.6914V13.8672H27.9141V18.4492Z" fill="white"/>
</svg>
