<svg width="25" height="25" viewBox="0 0 25 25" fill="none" xmlns="http://www.w3.org/2000/svg">
    <g clip-path="url(#clip0)">
        <path d="M10.6771 11.7188H0.78125C0.349998 11.7188 0 11.3688 0 10.9375C0 10.5062 0.349998 10.1562 0.78125 10.1562H10.6771C11.1084 10.1562 11.4584 10.5062 11.4584 10.9375C11.4584 11.3688 11.1084 11.7188 10.6771 11.7188Z" fill="#333333"/>
        <path d="M6.77087 15.625C6.57079 15.625 6.3709 15.5489 6.21869 15.3959C5.91351 15.0906 5.91351 14.5958 6.21869 14.2906L9.57295 10.9365L6.21869 7.58343C5.91351 7.27806 5.91351 6.78329 6.21869 6.47812C6.52386 6.17294 7.01863 6.17294 7.324 6.47812L11.2302 10.3844C11.5354 10.6895 11.5354 11.1843 11.2302 11.4897L7.324 15.3959C7.17084 15.5489 6.97076 15.625 6.77087 15.625Z" fill="#333333"/>
        <path d="M16.6665 25.0003C15.5175 25.0003 14.5833 24.0659 14.5833 22.9169V4.16692C14.5833 3.27638 15.15 2.48159 15.9936 2.18881L22.2521 0.102361C23.6521 -0.326793 25 0.711759 25 2.08371V20.8337C25 21.7233 24.4334 22.5169 23.5907 22.8107L17.3301 24.8983C17.102 24.969 16.8907 25.0003 16.6665 25.0003ZM22.9166 1.56282C22.8489 1.56282 22.7917 1.57121 22.7303 1.5899L16.4979 3.66796C16.2937 3.73891 16.1458 3.9451 16.1458 4.16692V22.9169C16.1458 23.2723 16.5311 23.5118 16.8531 23.4107L23.0854 21.3327C23.2886 21.2617 23.4375 21.0555 23.4375 20.8337V2.08371C23.4375 1.79723 23.2042 1.56282 22.9166 1.56282Z" fill="#333333"/>
        <path d="M9.11468 5.2084C8.68343 5.2084 8.33344 4.8584 8.33344 4.42715V2.86465C8.33344 1.28441 9.61765 0 11.1979 0H22.9166C23.3479 0 23.6979 0.349998 23.6979 0.78125C23.6979 1.2125 23.3479 1.5625 22.9166 1.5625H11.1979C10.4802 1.5625 9.89593 2.14691 9.89593 2.86465V4.42715C9.89593 4.8584 9.54594 5.2084 9.11468 5.2084Z" fill="#333333"/>
        <path d="M15.3647 21.875H11.1979C9.61765 21.875 8.33344 20.5906 8.33344 19.0103V17.4478C8.33344 17.0166 8.68343 16.6666 9.11469 16.6666C9.54594 16.6666 9.89594 17.0166 9.89594 17.4478V19.0103C9.89594 19.7281 10.4802 20.3125 11.1979 20.3125H15.3647C15.7959 20.3125 16.1459 20.6625 16.1459 21.0937C16.1459 21.525 15.7959 21.875 15.3647 21.875Z" fill="#333333"/>
    </g>
    <defs>
        <clipPath id="clip0">
            <rect width="25" height="25" fill="white"/>
        </clipPath>
    </defs>
</svg>
