<svg width="50" height="10" viewBox="0 0 50 10" fill="none" xmlns="http://www.w3.org/2000/svg">
    <g clip-path="url(#clip0)">
        <path d="M9.7345 3.57665L6.66033 3.10707L5.28241 0.172065C5.1795 -0.0471012 4.81991 -0.0471012 4.717 0.172065L3.3395 3.10707L0.265334 3.57665C0.0128339 3.6154 -0.0879994 3.92248 0.0890838 4.10373L2.32242 6.3929L1.7945 9.62915C1.75242 9.88623 2.027 10.0791 2.25408 9.9529L4.99991 8.4354L7.74575 9.95331C7.97075 10.0783 8.24783 9.88915 8.20533 9.62957L7.67741 6.39331L9.91074 4.10415C10.0878 3.92248 9.98658 3.6154 9.7345 3.57665Z" fill="white"/>
    </g>
    <g clip-path="url(#clip1)">
        <path d="M19.7345 3.57665L16.6603 3.10707L15.2824 0.172065C15.1795 -0.0471012 14.8199 -0.0471012 14.717 0.172065L13.3395 3.10707L10.2653 3.57665C10.0128 3.6154 9.912 3.92248 10.0891 4.10373L12.3224 6.3929L11.7945 9.62915C11.7524 9.88623 12.027 10.0791 12.2541 9.9529L14.9999 8.4354L17.7457 9.95331C17.9707 10.0783 18.2478 9.88915 18.2053 9.62957L17.6774 6.39331L19.9107 4.10415C20.0878 3.92248 19.9866 3.6154 19.7345 3.57665Z" fill="white"/>
    </g>
    <g clip-path="url(#clip2)">
        <path d="M29.7345 3.57665L26.6603 3.10707L25.2824 0.172065C25.1795 -0.0471012 24.8199 -0.0471012 24.717 0.172065L23.3395 3.10707L20.2653 3.57665C20.0128 3.6154 19.912 3.92248 20.0891 4.10373L22.3224 6.3929L21.7945 9.62915C21.7524 9.88623 22.027 10.0791 22.2541 9.9529L24.9999 8.4354L27.7457 9.95331C27.9707 10.0783 28.2478 9.88915 28.2053 9.62957L27.6774 6.39331L29.9107 4.10415C30.0878 3.92248 29.9866 3.6154 29.7345 3.57665Z" fill="white"/>
    </g>
    <g clip-path="url(#clip3)">
        <path d="M39.7345 3.57665L36.6603 3.10707L35.2824 0.172065C35.1795 -0.0471012 34.8199 -0.0471012 34.717 0.172065L33.3395 3.10707L30.2653 3.57665C30.0128 3.6154 29.912 3.92248 30.0891 4.10373L32.3224 6.3929L31.7945 9.62915C31.7524 9.88623 32.027 10.0791 32.2541 9.9529L34.9999 8.4354L37.7458 9.95331C37.9708 10.0783 38.2478 9.88915 38.2053 9.62957L37.6774 6.39331L39.9108 4.10415C40.0878 3.92248 39.9866 3.6154 39.7345 3.57665Z" fill="white"/>
    </g>
    <g clip-path="url(#clip4)">
        <path d="M49.7345 3.57665L46.6603 3.10707L45.2824 0.172065C45.1795 -0.0471012 44.8199 -0.0471012 44.717 0.172065L43.3395 3.10707L40.2653 3.57665C40.0128 3.6154 39.912 3.92248 40.0891 4.10373L42.3224 6.3929L41.7945 9.62915C41.7524 9.88623 42.027 10.0791 42.2541 9.9529L44.9999 8.4354L47.7458 9.95331C47.9708 10.0783 48.2478 9.88915 48.2053 9.62957L47.6774 6.39331L49.9108 4.10415C50.0878 3.92248 49.9866 3.6154 49.7345 3.57665Z" fill="white"/>
    </g>
    <defs>
        <clipPath id="clip0">
            <rect width="10" height="10" fill="white"/>
        </clipPath>
        <clipPath id="clip1">
            <rect x="10" width="10" height="10" fill="white"/>
        </clipPath>
        <clipPath id="clip2">
            <rect x="20" width="10" height="10" fill="white"/>
        </clipPath>
        <clipPath id="clip3">
            <rect x="30" width="10" height="10" fill="white"/>
        </clipPath>
        <clipPath id="clip4">
            <rect x="40" width="10" height="10" fill="white"/>
        </clipPath>
    </defs>
</svg>
